PathFileType	4	(X/Y/Z)	/Users/itak/Documents/Research/Walk-IL/dataset/trc/00201_00008.trc
DataRate	CameraRate	NumFrames	NumMarkers	Units	OrigDataRate	OrigDataStartFrame	OrigNumFrames
100.000000	100.000000	4	54	mm	100.000000	0	567
Frame#	Time	RPSI			LPSI			L3			STRN			T10			C7			CLAV			RBAK			LBAK			LSHO			LUPA			LAEL			LAOL			LWTS			LWPS			LFRA			LIFD			LHPS			LHTS			RSHO			RUPA			RAEL			RAOL			RWTS			RWPS			RFRA			RIFD			RHTS			RHPS			RBHD			LFHD			RFHD			LBHD			LHIP			RASI			LASI			LKNE			LTHI			LANK			LTIP			LTOE			LMT1			LMT5			LHEE			RKNE			RTHI			RANK			RTIP			RTOE			RMT1			RMT5			RHEE			RHIP			*53			
		X1	Y1	Z1	X2	Y2	Z2	X3	Y3	Z3	X4	Y4	Z4	X5	Y5	Z5	X6	Y6	Z6	X7	Y7	Z7	X8	Y8	Z8	X9	Y9	Z9	X10	Y10	Z10	X11	Y11	Z11	X12	Y12	Z12	X13	Y13	Z13	X14	Y14	Z14	X15	Y15	Z15	X16	Y16	Z16	X17	Y17	Z17	X18	Y18	Z18	X19	Y19	Z19	X20	Y20	Z20	X21	Y21	Z21	X22	Y22	Z22	X23	Y23	Z23	X24	Y24	Z24	X25	Y25	Z25	X26	Y26	Z26	X27	Y27	Z27	X28	Y28	Z28	X29	Y29	Z29	X30	Y30	Z30	X31	Y31	Z31	X32	Y32	Z32	X33	Y33	Z33	X34	Y34	Z34	X35	Y35	Z35	X36	Y36	Z36	X37	Y37	Z37	X38	Y38	Z38	X39	Y39	Z39	X40	Y40	Z40	X41	Y41	Z41	X42	Y42	Z42	X43	Y43	Z43	X44	Y44	Z44	X45	Y45	Z45	X46	Y46	Z46	X47	Y47	Z47	X48	Y48	Z48	X49	Y49	Z49	X50	Y50	Z50	X51	Y51	Z51	X52	Y52	Z52	X53	Y53	Z53	X54	Y54	Z54	

1	0	-1554.988647460938	1053.080932617188	-457.1836242675781	-1559.249633789062	1055.19384765625	-581.1041259765625	-1555.459106445312	1091.4775390625	-514.6575317382812	-1302.25244140625	1301.412841796875	-531.248046875	-1590.780395507812	1244.895263671875	-512.48779296875	-1533.337890625	1516.681396484375	-523.7726440429688	-1329.391723632812	1415.802124023438	-537.2986450195312	-1588.74462890625	1338.732299804688	-412.5107116699219	-1546.985595703125	1491.873901367188	-624.9431762695312	-1476.427001953125	1480.36474609375	-709.9004516601562	-1513.012084960938	1347.793090820312	-780.2984008789062	-1501.3779296875	1130.272827148438	-794.6529541015625	-1536.33154296875	1113.544921875	-714.8409423828125	-1382.280395507812	898.064453125	-775.4276123046875	-1468.8642578125	875.6203002929688	-805.9080810546875	-1487.103637695312	1017.709045410156	-808.1909790039062	-1364.358764648438	713.1487426757812	-756.9386596679688	-1445.982666015625	806.692138671875	-805.644287109375	-1373.392822265625	819.5529174804688	-797.537109375	-1455.46826171875	1492.64404296875	-348.7695007324219	-1466.58447265625	1425.2607421875	-278.4471740722656	-1458.638671875	1137.0458984375	-219.1683807373047	-1475.387573242188	1126.080810546875	-316.2122802734375	-1315.431396484375	913.9879150390625	-244.3536529541016	-1384.3720703125	897.2680053710938	-188.8233032226562	-1430.437377929688	1067.048583984375	-201.3753356933594	-1299.530517578125	723.89892578125	-260.8350219726562	-1286.4365234375	821.301025390625	-235.2167205810547	-1355.19287109375	815.7919921875	-189.2939300537109	-1462.528198242188	1659.43017578125	-427.9286499023438	-1379.913452148438	1756.083862304688	-606.4574584960938	-1325.192749023438	1749.873291015625	-488.4407653808594	-1527.080810546875	1671.687133789062	-548.1812133789062	-1462.602661132812	996.9081420898438	-706.3048095703125	-1313.3232421875	1040.312133789062	-399.7499694824219	-1333.55322265625	1033.226684570312	-656.3694458007812	-1429.81884765625	498.8202514648438	-686.1217041015625	-1428.447631835938	641.6646118164062	-710.821533203125	-1533.936401367188	39.87358093261719	-696.8570556640625	-1478.899047851562	276.087158203125	-703.4738159179688	-1312.223022460938	40.56430053710938	-689.5848999023438	-1358.952880859375	40.96901702880859	-637.9865112304688	-1429.816284179688	31.11891937255859	-746.3059692382812	-1577.55322265625	38.98617935180664	-623.6885375976562	-1422.88916015625	512.5277709960938	-364.5065612792969	-1367.521240234375	772.7369384765625	-332.8338928222656	-1520.288452148438	37.43104553222656	-369.0604553222656	-1419.85498046875	397.1195983886719	-384.0574035644531	-1297.582885742188	39.78691864013672	-407.3460388183594	-1353.378662109375	37.81888961791992	-451.7399597167969	-1406.92822265625	37.55692291259766	-336.7525329589844	-1571.55712890625	32.71667098999023	-435.7601013183594	-1395.586181640625	1011.004577636719	-340.2679443359375	nan	nan	nan	
2	0.01	-1554.990112304688	1053.044677734375	-457.5117797851562	-1559.09228515625	1055.095825195312	-581.4125366210938	-1555.411499023438	1091.409301757812	-514.9625244140625	-1302.338989257812	1301.348266601562	-531.532470703125	-1590.812255859375	1244.831787109375	-512.8846435546875	-1533.378295898438	1516.59716796875	-524.1588745117188	-1329.45947265625	1415.77197265625	-537.5602416992188	-1588.828125	1338.713989257812	-412.9513549804688	-1547.038330078125	1491.809692382812	-625.39697265625	-1476.397705078125	1480.272338867188	-710.26171875	-1512.884521484375	1347.70361328125	-780.7322998046875	-1501.073852539062	1130.193725585938	-795.0941162109375	-1536.141479492188	1113.435424804688	-715.3577270507812	-1382.3154296875	897.8690185546875	-776.10888671875	-1468.919189453125	875.5809936523438	-806.5751342773438	-1486.951171875	1017.666931152344	-808.772705078125	-1364.750366210938	712.9027099609375	-757.8267211914062	-1446.105224609375	806.6187133789062	-806.3978881835938	-1373.5517578125	819.3724365234375	-798.333984375	-1455.595458984375	1492.627197265625	-349.129150390625	-1466.735229492188	1425.254150390625	-278.7712707519531	-1458.658203125	1136.851806640625	-219.7176513671875	-1475.504760742188	1126.044677734375	-316.7759399414062	-1314.843872070312	914.2783813476562	-245.667236328125	-1383.676635742188	897.1513061523438	-190.1068572998047	-1430.254272460938	1066.828002929688	-202.1008148193359	-1298.27783203125	724.2522583007812	-262.7685241699219	-1285.420654296875	821.6384887695312	-236.8765716552734	-1354.2314453125	815.7601318359375	-190.8475341796875	-1462.6962890625	1659.429443359375	-428.3788146972656	-1380.153930664062	1756.02978515625	-606.9461059570312	-1325.450561523438	1749.914428710938	-488.9269409179688	-1527.303100585938	1671.530395507812	-548.6541748046875	-1462.355346679688	996.7821044921875	-706.5274047851562	-1313.356201171875	1040.277221679688	-399.8994140625	-1333.448852539062	1033.114013671875	-656.5289306640625	-1430.405883789062	498.6830139160156	-686.0419921875	-1428.763427734375	641.562744140625	-710.79150390625	-1533.92333984375	39.89813232421875	-696.7960815429688	-1479.203247070312	276.0613098144531	-703.43701171875	-1312.177734375	40.54508209228516	-689.565185546875	-1358.930053710938	40.92708587646484	-637.9588623046875	-1429.799072265625	31.15139770507812	-746.2596435546875	-1577.558959960938	38.97857666015625	-623.6574096679688	-1423.069458007812	512.533447265625	-364.6094055175781	-1365.033203125	773.977783203125	-333.8461608886719	-1520.297119140625	37.43302154541016	-369.0807495117188	-1419.972534179688	397.1570739746094	-384.085693359375	-1297.582153320312	39.79262924194336	-407.3346862792969	-1353.382568359375	37.81982421875	-451.724609375	-1406.932250976562	37.55608367919922	-336.7502746582031	-1571.566040039062	32.73173141479492	-435.7966918945312	-1395.6826171875	1011.016235351562	-340.5028686523438	nan	nan	nan	
3	0.02	-1554.998779296875	1053.01123046875	-457.915771484375	-1558.895141601562	1054.979248046875	-581.7943725585938	-1555.350830078125	1091.326904296875	-515.354736328125	-1302.442016601562	1301.277954101562	-531.87451171875	-1590.860107421875	1244.75048828125	-513.3900756835938	-1533.441650390625	1516.48779296875	-524.6558837890625	-1329.551635742188	1415.73828125	-537.9012451171875	-1588.935791015625	1338.685913085938	-413.492919921875	-1547.11181640625	1491.7265625	-625.9661254882812	-1476.360961914062	1480.157592773438	-710.7265014648438	-1512.72607421875	1347.602294921875	-781.2782592773438	-1500.66259765625	1130.062744140625	-795.656494140625	-1535.897583007812	1113.301513671875	-716.0236206054688	-1382.320190429688	897.65771484375	-776.9896240234375	-1468.966430664062	875.5474853515625	-807.4318237304688	-1486.748779296875	1017.628723144531	-809.519287109375	-1365.269775390625	712.5626831054688	-758.9889526367188	-1446.21142578125	806.5386352539062	-807.3554077148438	-1373.702026367188	819.1665649414062	-799.3377075195312	-1455.758056640625	1492.613647460938	-349.5807189941406	-1466.939819335938	1425.243286132812	-279.1942749023438	-1458.674072265625	1136.609375	-220.4369812011719	-1475.63232421875	1126.007690429688	-317.5068664550781	-1314.113159179688	914.6370239257812	-247.3428955078125	-1382.810302734375	897.0051879882812	-191.7583312988281	-1430.035034179688	1066.552856445312	-203.0527496337891	-1296.771606445312	724.6990356445312	-265.2344970703125	-1284.214477539062	822.0510864257812	-238.9947204589844	-1353.035522460938	815.7225952148438	-192.8422393798828	-1462.8994140625	1659.430541992188	-428.9388427734375	-1380.457397460938	1755.962280273438	-607.565673828125	-1325.76953125	1749.967895507812	-489.5354614257812	-1527.557861328125	1671.344116210938	-549.2432250976562	-1462.020385742188	996.6152954101562	-706.7949829101562	-1313.407348632812	1040.242553710938	-400.0779113769531	-1333.314819335938	1032.972900390625	-656.7193603515625	-1431.133056640625	498.5166320800781	-685.9254150390625	-1429.161987304688	641.4367065429688	-710.7464599609375	-1533.907836914062	39.93450927734375	-696.718017578125	-1479.5908203125	276.0339050292969	-703.3845825195312	-1312.12353515625	40.52153396606445	-689.5440673828125	-1358.90087890625	40.87392807006836	-637.9227294921875	-1429.776733398438	31.19719886779785	-746.1961059570312	-1577.566650390625	38.96922302246094	-623.6121826171875	-1423.295532226562	512.535888671875	-364.7290649414062	-1362.40380859375	775.3036499023438	-334.9277954101562	-1520.308471679688	37.43833541870117	-369.1063232421875	-1420.107177734375	397.1985473632812	-384.1157836914062	-1297.580322265625	39.80104064941406	-407.3187561035156	-1353.38671875	37.82213973999023	-451.7051391601562	-1406.9365234375	37.55549240112305	-336.744140625	-1571.575561523438	32.75246429443359	-435.8419494628906	-1395.795776367188	1011.04541015625	-340.7880859375	nan	nan	nan	
4	0.03	-1555.018310546875	1052.987548828125	-458.3752136230469	-1558.6689453125	1054.8525390625	-582.2315673828125	-1555.281494140625	1091.237915039062	-515.820556640625	-1302.55615234375	1301.209350585938	-532.2531127929688	-1590.925048828125	1244.65283203125	-513.9862060546875	-1533.532592773438	1516.3583984375	-525.2486572265625	-1329.667236328125	1415.703125	-538.3153076171875	-1589.06591796875	1338.645141601562	-414.1107177734375	-1547.205322265625	1491.625610351562	-626.6268920898438	-1476.319213867188	1480.026123046875	-711.2789306640625	-1512.541381835938	1347.495971679688	-781.9146728515625	-1500.150634765625	1129.871826171875	-796.322998046875	-1535.608642578125	1113.150268554688	-716.820068359375	-1382.274047851562	897.4512939453125	-778.0402221679688	-1468.98583984375	875.5264892578125	-808.4521484375	-1486.49560546875	1017.601806640625	-810.4074096679688	-1365.885009765625	712.1383056640625	-760.3890380859375	-1446.274047851562	806.4612426757812	-808.4833374023438	-1373.81298828125	818.9550170898438	-800.5087280273438	-1455.956176757812	1492.606567382812	-350.1078491210938	-1467.196044921875	1425.226440429688	-279.7052307128906	-1458.681640625	1136.329345703125	-221.3117218017578	-1475.759887695312	1125.97412109375	-318.3875122070312	-1313.27392578125	915.0443725585938	-249.3252716064453	-1381.812866210938	896.8362426757812	-193.7279510498047	-1429.790161132812	1066.235717773438	-204.2106018066406	-1295.096435546875	725.2218627929688	-268.1502380371094	-1282.896484375	822.518798828125	-241.4976348876953	-1351.661865234375	815.6822509765625	-195.2155151367188	-1463.129638671875	1659.434936523438	-429.5868225097656	-1380.809204101562	1755.883911132812	-608.292724609375	-1326.131958007812	1750.031372070312	-490.2431335449219	-1527.827880859375	1671.144165039062	-549.9244995117188	-1461.601196289062	996.4114379882812	-707.0906372070312	-1313.476928710938	1040.214965820312	-400.2711181640625	-1333.151489257812	1032.80712890625	-656.9291381835938	-1431.968017578125	498.3323974609375	-685.76904296875	-1429.626953125	641.2919921875	-710.6865844726562	-1533.890625	39.9824333190918	-696.625732421875	-1480.05126953125	276.0093383789062	-703.315185546875	-1312.063720703125	40.49502944946289	-689.5235595703125	-1358.86669921875	40.8116455078125	-637.879638671875	-1429.749145507812	31.25643730163574	-746.1158447265625	-1577.576416015625	38.95839691162109	-623.5516967773438	-1423.546997070312	512.5366821289062	-364.8531494140625	-1359.992065429688	776.5490112304688	-335.9406127929688	-1520.321044921875	37.44648742675781	-369.1349792480469	-1420.246337890625	397.2403564453125	-384.1439208984375	-1297.577392578125	39.81119918823242	-407.298828125	-1353.390380859375	37.82670593261719	-451.6825256347656	-1406.941528320312	37.5546875	-336.7333068847656	-1571.584350585938	32.77736282348633	-435.8927917480469	-1395.917846679688	1011.098205566406	-341.10400390625	nan	nan	nan	
